{
  "accessors": [
    {
      "bufferView": 2,
      "componentType": 5126,
      "count": 65532,
      "max": [
        12.774444580078125,
        35.81557083129883,
        17.08112144470215
      ],
      "min": [
        -8.945448875427246,
        -6.5529561042785645,
        -3.7892825603485107
      ],
      "type": "VEC3"
    },
    {
      "bufferView": 2,
      "byteOffset": 786384,
      "componentType": 5126,
      "count": 65532,
      "max": [
        1.0,
        1.0,
        1.0
      ],
      "min": [
        -1.0,
        -1.0,
        -1.0
      ],
      "type": "VEC3"
    },
    {
      "bufferView": 1,
      "componentType": 5126,
      "count": 65532,
      "max": [
        0.999770998954773,
        0.9998779892921448
      ],
      "min": [
        0.00012199999764561653,
        0.00020700000459328294
      ],
      "type": "VEC2"
    },
    {
      "bufferView": 0,
      "componentType": 5125,
      "count": 270207,
      "type": "SCALAR"
    },
    {
      "bufferView": 2,
      "byteOffset": 1572768,
      "componentType": 5126,
      "count": 65532,
      "max": [
        12.768559455871582,
        35.8155632019043,
        17.081106185913086
      ],
      "min": [
        -8.945448875427246,
        -1.5888853073120117,
        -3.0589945316314697
      ],
      "type": "VEC3"
    },
    {
      "bufferView": 2,
      "byteOffset": 2359152,
      "componentType": 5126,
      "count": 65532,
      "max": [
        1.0,
        1.0,
        1.0
      ],
      "min": [
        -1.0,
        -1.0,
        -1.0
      ],
      "type": "VEC3"
    },
    {
      "bufferView": 1,
      "byteOffset": 524256,
      "componentType": 5126,
      "count": 65532,
      "max": [
        0.9998049736022949,
        0.9998779892921448
      ],
      "min": [
        0.00012199999764561653,
        0.0001900000061141327
      ],
      "type": "VEC2"
    },
    {
      "bufferView": 0,
      "byteOffset": 1080828,
      "componentType": 5125,
      "count": 289188,
      "type": "SCALAR"
    },
    {
      "bufferView": 2,
      "byteOffset": 3145536,
      "componentType": 5126,
      "count": 65532,
      "max": [
        11.914780616760254,
        34.0225830078125,
        14.739334106445313
      ],
      "min": [
        -8.945415496826172,
        0.6924285888671875,
        -3.7892813682556152
      ],
      "type": "VEC3"
    },
    {
      "bufferView": 2,
      "byteOffset": 3931920,
      "componentType": 5126,
      "count": 65532,
      "max": [
        1.0,
        1.0,
        1.0
      ],
      "min": [
        -0.9999998807907104,
        -0.9999998807907104,
        -1.0
      ],
      "type": "VEC3"
    },
    {
      "bufferView": 1,
      "byteOffset": 1048512,
      "componentType": 5126,
      "count": 65532,
      "max": [
        0.9977220296859741,
        0.9998779892921448
      ],
      "min": [
        0.00012199999764561653,
        0.00025099999038502574
      ],
      "type": "VEC2"
    },
    {
      "bufferView": 0,
      "byteOffset": 2237580,
      "componentType": 5125,
      "count": 295005,
      "type": "SCALAR"
    },
    {
      "bufferView": 2,
      "byteOffset": 4718304,
      "componentType": 5126,
      "count": 65532,
      "max": [
        10.85934829711914,
        33.52161407470703,
        16.31234359741211
      ],
      "min": [
        -7.968697547912598,
        -2.7152934074401855,
        -3.087651491165161
      ],
      "type": "VEC3"
    },
    {
      "bufferView": 2,
      "byteOffset": 5504688,
      "componentType": 5126,
      "count": 65532,
      "max": [
        0.9999999403953552,
        0.9999999403953552,
        1.0
      ],
      "min": [
        -1.0,
        -0.9999999403953552,
        -1.0
      ],
      "type": "VEC3"
    },
    {
      "bufferView": 1,
      "byteOffset": 1572768,
      "componentType": 5126,
      "count": 65532,
      "max": [
        0.9997469782829285,
        0.9998779892921448
      ],
      "min": [
        0.00012199999764561653,
        0.00020500000391621143
      ],
      "type": "VEC2"
    },
    {
      "bufferView": 0,
      "byteOffset": 3417600,
      "componentType": 5125,
      "count": 282420,
      "type": "SCALAR"
    },
    {
      "bufferView": 2,
      "byteOffset": 6291072,
      "componentType": 5126,
      "count": 65533,
      "max": [
        10.439422607421875,
        33.26200866699219,
        17.08108901977539
      ],
      "min": [
        -8.945448875427246,
        -6.523849010467529,
        -3.099457263946533
      ],
      "type": "VEC3"
    },
    {
      "bufferView": 2,
      "byteOffset": 7077468,
      "componentType": 5126,
      "count": 65533,
      "max": [
        1.0,
        0.9999999403953552,
        1.0
      ],
      "min": [
        -1.0,
        -0.999999463558197,
        -1.0
      ],
      "type": "VEC3"
    },
    {
      "bufferView": 1,
      "byteOffset": 2097024,
      "componentType": 5126,
      "count": 65533,
      "max": [
        0.9996870160102844,
        0.9998779892921448
      ],
      "min": [
        0.00012199999764561653,
        0.00031599999056197703
      ],
      "type": "VEC2"
    },
    {
      "bufferView": 0,
      "byteOffset": 4547280,
      "componentType": 5125,
      "count": 267444,
      "type": "SCALAR"
    },
    {
      "bufferView": 2,
      "byteOffset": 7863864,
      "componentType": 5126,
      "count": 65533,
      "max": [
        9.369595527648926,
        33.51842498779297,
        16.206701278686523
      ],
      "min": [
        -7.973422527313232,
        -4.159153461456299,
        -3.081671953201294
      ],
      "type": "VEC3"
    },
    {
      "bufferView": 2,
      "byteOffset": 8650260,
      "componentType": 5126,
      "count": 65533,
      "max": [
        1.0,
        0.9999998211860657,
        1.0
      ],
      "min": [
        -1.0,
        -1.0,
        -0.9999992251396179
      ],
      "type": "VEC3"
    },
    {
      "bufferView": 1,
      "byteOffset": 2621288,
      "componentType": 5126,
      "count": 65533,
      "max": [
        0.999783992767334,
        0.9998779892921448
      ],
      "min": [
        0.00012199999764561653,
        0.00020599999697878957
      ],
      "type": "VEC2"
    },
    {
      "bufferView": 0,
      "byteOffset": 5617056,
      "componentType": 5125,
      "count": 251076,
      "type": "SCALAR"
    },
    {
      "bufferView": 2,
      "byteOffset": 9436656,
      "componentType": 5126,
      "count": 65532,
      "max": [
        12.24052619934082,
        33.625518798828125,
        14.70835018157959
      ],
      "min": [
        -7.896115779876709,
        -3.852858066558838,
        -3.0878326892852783
      ],
      "type": "VEC3"
    },
    {
      "bufferView": 2,
      "byteOffset": 10223040,
      "componentType": 5126,
      "count": 65532,
      "max": [
        1.0,
        0.9999999403953552,
        1.0
      ],
      "min": [
        -1.0,
        -0.9999998807907104,
        -0.9999998211860657
      ],
      "type": "VEC3"
    },
    {
      "bufferView": 1,
      "byteOffset": 3145552,
      "componentType": 5126,
      "count": 65532,
      "max": [
        0.999813973903656,
        0.9998779892921448
      ],
      "min": [
        0.00012199999764561653,
        0.00019099999917671084
      ],
      "type": "VEC2"
    },
    {
      "bufferView": 0,
      "byteOffset": 6621360,
      "componentType": 5125,
      "count": 248454,
      "type": "SCALAR"
    },
    {
      "bufferView": 2,
      "byteOffset": 11009424,
      "componentType": 5126,
      "count": 65532,
      "max": [
        12.768569946289063,
        33.911842346191406,
        14.883614540100098
      ],
      "min": [
        -8.9454345703125,
        -6.174458026885986,
        -3.7892699241638184
      ],
      "type": "VEC3"
    },
    {
      "bufferView": 2,
      "byteOffset": 11795808,
      "componentType": 5126,
      "count": 65532,
      "max": [
        1.0,
        0.9999998211860657,
        1.0
      ],
      "min": [
        -1.0,
        -1.0,
        -1.0
      ],
      "type": "VEC3"
    },
    {
      "bufferView": 1,
      "byteOffset": 3669808,
      "componentType": 5126,
      "count": 65532,
      "max": [
        0.9997829794883728,
        0.9998779892921448
      ],
      "min": [
        0.00012199999764561653,
        0.00022499999613501132
      ],
      "type": "VEC2"
    },
    {
      "bufferView": 0,
      "byteOffset": 7615176,
      "componentType": 5125,
      "count": 224835,
      "type": "SCALAR"
    },
    {
      "bufferView": 2,
      "byteOffset": 12582192,
      "componentType": 5126,
      "count": 65533,
      "max": [
        12.768562316894531,
        33.050621032714844,
        17.081083297729492
      ],
      "min": [
        -8.945448875427246,
        -6.523849010467529,
        -3.0871074199676514
      ],
      "type": "VEC3"
    },
    {
      "bufferView": 2,
      "byteOffset": 13368588,
      "componentType": 5126,
      "count": 65533,
      "max": [
        1.0,
        0.9999997615814209,
        1.0
      ],
      "min": [
        -1.0,
        -0.9999993443489075,
        -0.9999999403953552
      ],
      "type": "VEC3"
    },
    {
      "bufferView": 1,
      "byteOffset": 4194064,
      "componentType": 5126,
      "count": 65533,
      "max": [
        0.9998059868812561,
        0.9998779892921448
      ],
      "min": [
        0.00012199999764561653,
        0.0001849999971454963
      ],
      "type": "VEC2"
    },
    {
      "bufferView": 0,
      "byteOffset": 8514516,
      "componentType": 5125,
      "count": 204204,
      "type": "SCALAR"
    },
    {
      "bufferView": 2,
      "byteOffset": 14154984,
      "componentType": 5126,
      "count": 65532,
      "max": [
        11.880233764648438,
        33.52507781982422,
        8.975829124450684
      ],
      "min": [
        -7.412658214569092,
        -5.064751148223877,
        -3.0827219486236572
      ],
      "type": "VEC3"
    },
    {
      "bufferView": 2,
      "byteOffset": 14941368,
      "componentType": 5126,
      "count": 65532,
      "max": [
        1.0,
        0.999999463558197,
        1.0
      ],
      "min": [
        -0.9999997615814209,
        -0.9999998211860657,
        -0.9999997615814209
      ],
      "type": "VEC3"
    },
    {
      "bufferView": 1,
      "byteOffset": 4718328,
      "componentType": 5126,
      "count": 65532,
      "max": [
        0.9997820258140564,
        0.9998779892921448
      ],
      "min": [
        0.00012199999764561653,
        0.00018400000408291817
      ],
      "type": "VEC2"
    },
    {
      "bufferView": 0,
      "byteOffset": 9331332,
      "componentType": 5125,
      "count": 212874,
      "type": "SCALAR"
    },
    {
      "bufferView": 2,
      "byteOffset": 15727752,
      "componentType": 5126,
      "count": 65532,
      "max": [
        11.911654472351074,
        35.81556701660156,
        14.896793365478516
      ],
      "min": [
        -7.993708610534668,
        -4.9143853187561035,
        -3.0748555660247803
      ],
      "type": "VEC3"
    },
    {
      "bufferView": 2,
      "byteOffset": 16514136,
      "componentType": 5126,
      "count": 65532,
      "max": [
        0.9999995827674866,
        0.9999996423721313,
        0.9999998211860657
      ],
      "min": [
        -0.9999998211860657,
        -0.9999998807907104,
        -0.999993622303009
      ],
      "type": "VEC3"
    },
    {
      "bufferView": 1,
      "byteOffset": 5242584,
      "componentType": 5126,
      "count": 65532,
      "max": [
        0.9998149871826172,
        0.9998779892921448
      ],
      "min": [
        0.00012199999764561653,
        0.00018400000408291817
      ],
      "type": "VEC2"
    },
    {
      "bufferView": 0,
      "byteOffset": 10182828,
      "componentType": 5125,
      "count": 190704,
      "type": "SCALAR"
    },
    {
      "bufferView": 2,
      "byteOffset": 17300520,
      "componentType": 5126,
      "count": 65532,
      "max": [
        11.874153137207031,
        33.65345764160156,
        14.591816902160645
      ],
      "min": [
        -8.012874603271484,
        -3.9536378383636475,
        -3.076436996459961
      ],
      "type": "VEC3"
    },
    {
      "bufferView": 2,
      "byteOffset": 18086904,
      "componentType": 5126,
      "count": 65532,
      "max": [
        1.0,
        0.9999998807907104,
        1.0
      ],
      "min": [
        -1.0,
        -0.9999997615814209,
        -0.9999997615814209
      ],
      "type": "VEC3"
    },
    {
      "bufferView": 1,
      "byteOffset": 5766840,
      "componentType": 5126,
      "count": 65532,
      "max": [
        0.9997739791870117,
        0.9998779892921448
      ],
      "min": [
        0.00012199999764561653,
        0.000195999993593432
      ],
      "type": "VEC2"
    },
    {
      "bufferView": 0,
      "byteOffset": 10945644,
      "componentType": 5125,
      "count": 166350,
      "type": "SCALAR"
    },
    {
      "bufferView": 2,
      "byteOffset": 18873288,
      "componentType": 5126,
      "count": 44483,
      "max": [
        11.90388298034668,
        35.8155632019043,
        17.081087112426758
      ],
      "min": [
        -8.945448875427246,
        -6.523849010467529,
        -3.0878326892852783
      ],
      "type": "VEC3"
    },
    {
      "bufferView": 2,
      "byteOffset": 19407084,
      "componentType": 5126,
      "count": 44483,
      "max": [
        1.0,
        0.9999988675117493,
        1.0
      ],
      "min": [
        -1.0,
        -0.9999995827674866,
        -1.0
      ],
      "type": "VEC3"
    },
    {
      "bufferView": 1,
      "byteOffset": 6291096,
      "componentType": 5126,
      "count": 44483,
      "max": [
        0.9997990131378174,
        0.9998779892921448
      ],
      "min": [
        0.00012199999764561653,
        0.00018899999849963933
      ],
      "type": "VEC2"
    },
    {
      "bufferView": 0,
      "byteOffset": 11611044,
      "componentType": 5125,
      "count": 97236,
      "type": "SCALAR"
    }
  ],
  "asset": {
    "extras": {
      "author": "The Hallwyl Museum (Hallwylska museet) (https://sketchfab.com/TheHallwylMuseum)",
      "license": "CC-BY-4.0 (http://creativecommons.org/licenses/by/4.0/)",
      "source": "https://sketchfab.com/3d-models/the-serving-room-a36db9b3d15a44b1a9c7f1675efd9a06",
      "title": "The Serving Room"
    },
    "generator": "Sketchfab-12.65.0",
    "version": "2.0"
  },
  "bufferViews": [
    {
      "buffer": 0,
      "byteLength": 11999988,
      "name": "floatBufferViews",
      "target": 34963
    },
    {
      "buffer": 0,
      "byteLength": 6646960,
      "byteOffset": 11999988,
      "byteStride": 8,
      "name": "floatBufferViews",
      "target": 34962
    },
    {
      "buffer": 0,
      "byteLength": 19940880,
      "byteOffset": 18646948,
      "byteStride": 12,
      "name": "floatBufferViews",
      "target": 34962
    }
  ],
  "buffers": [
    {
      "byteLength": 38587828,
      "uri": "scene.bin"
    }
  ],
  "extensionsUsed": [
    "KHR_materials_unlit"
  ],
  "images": [
    {
      "uri": "textures/model_Material_u1_v1_baseColor.jpeg"
    }
  ],
  "materials": [
    {
      "extensions": {
        "KHR_materials_unlit": {}
      },
      "name": "model_Material_u1_v1",
      "pbrMetallicRoughness": {
        "baseColorTexture": {
          "index": 0
        },
        "metallicFactor": 0.0
      }
    }
  ],
  "meshes": [
    {
      "name": "Object_0",
      "primitives": [
        {
          "attributes": {
            "NORMAL": 1,
            "POSITION": 0,
            "TEXCOORD_0": 2
          },
          "indices": 3,
          "material": 0,
          "mode": 4
        }
      ]
    },
    {
      "name": "Object_1",
      "primitives": [
        {
          "attributes": {
            "NORMAL": 5,
            "POSITION": 4,
            "TEXCOORD_0": 6
          },
          "indices": 7,
          "material": 0,
          "mode": 4
        }
      ]
    },
    {
      "name": "Object_2",
      "primitives": [
        {
          "attributes": {
            "NORMAL": 9,
            "POSITION": 8,
            "TEXCOORD_0": 10
          },
          "indices": 11,
          "material": 0,
          "mode": 4
        }
      ]
    },
    {
      "name": "Object_3",
      "primitives": [
        {
          "attributes": {
            "NORMAL": 13,
            "POSITION": 12,
            "TEXCOORD_0": 14
          },
          "indices": 15,
          "material": 0,
          "mode": 4
        }
      ]
    },
    {
      "name": "Object_4",
      "primitives": [
        {
          "attributes": {
            "NORMAL": 17,
            "POSITION": 16,
            "TEXCOORD_0": 18
          },
          "indices": 19,
          "material": 0,
          "mode": 4
        }
      ]
    },
    {
      "name": "Object_5",
      "primitives": [
        {
          "attributes": {
            "NORMAL": 21,
            "POSITION": 20,
            "TEXCOORD_0": 22
          },
          "indices": 23,
          "material": 0,
          "mode": 4
        }
      ]
    },
    {
      "name": "Object_6",
      "primitives": [
        {
          "attributes": {
            "NORMAL": 25,
            "POSITION": 24,
            "TEXCOORD_0": 26
          },
          "indices": 27,
          "material": 0,
          "mode": 4
        }
      ]
    },
    {
      "name": "Object_7",
      "primitives": [
        {
          "attributes": {
            "NORMAL": 29,
            "POSITION": 28,
            "TEXCOORD_0": 30
          },
          "indices": 31,
          "material": 0,
          "mode": 4
        }
      ]
    },
    {
      "name": "Object_8",
      "primitives": [
        {
          "attributes": {
            "NORMAL": 33,
            "POSITION": 32,
            "TEXCOORD_0": 34
          },
          "indices": 35,
          "material": 0,
          "mode": 4
        }
      ]
    },
    {
      "name": "Object_9",
      "primitives": [
        {
          "attributes": {
            "NORMAL": 37,
            "POSITION": 36,
            "TEXCOORD_0": 38
          },
          "indices": 39,
          "material": 0,
          "mode": 4
        }
      ]
    },
    {
      "name": "Object_10",
      "primitives": [
        {
          "attributes": {
            "NORMAL": 41,
            "POSITION": 40,
            "TEXCOORD_0": 42
          },
          "indices": 43,
          "material": 0,
          "mode": 4
        }
      ]
    },
    {
      "name": "Object_11",
      "primitives": [
        {
          "attributes": {
            "NORMAL": 45,
            "POSITION": 44,
            "TEXCOORD_0": 46
          },
          "indices": 47,
          "material": 0,
          "mode": 4
        }
      ]
    },
    {
      "name": "Object_12",
      "primitives": [
        {
          "attributes": {
            "NORMAL": 49,
            "POSITION": 48,
            "TEXCOORD_0": 50
          },
          "indices": 51,
          "material": 0,
          "mode": 4
        }
      ]
    }
  ],
  "nodes": [
    {
      "children": [
        1
      ],
      "matrix": [
        0.1868133544921875,
        0.0,
        0.0,
        0.0,
        0.0,
        4.1480897492937596e-17,
        -0.1868133544921875,
        0.0,
        0.0,
        0.1868133544921875,
        4.1480897492937596e-17,
        0.0,
        0.0,
        0.0,
        0.0,
        1.0
      ],
      "name": "Sketchfab_model"
    },
    {
      "children": [
        2,
        3,
        4,
        5,
        6,
        7,
        8,
        9,
        10,
        11,
        12,
        13,
        14
      ],
      "name": "model.obj.cleaner.materialmerger.gles"
    },
    {
      "mesh": 0,
      "name": "Object_2"
    },
    {
      "mesh": 1,
      "name": "Object_3"
    },
    {
      "mesh": 2,
      "name": "Object_4"
    },
    {
      "mesh": 3,
      "name": "Object_5"
    },
    {
      "mesh": 4,
      "name": "Object_6"
    },
    {
      "mesh": 5,
      "name": "Object_7"
    },
    {
      "mesh": 6,
      "name": "Object_8"
    },
    {
      "mesh": 7,
      "name": "Object_9"
    },
    {
      "mesh": 8,
      "name": "Object_10"
    },
    {
      "mesh": 9,
      "name": "Object_11"
    },
    {
      "mesh": 10,
      "name": "Object_12"
    },
    {
      "mesh": 11,
      "name": "Object_13"
    },
    {
      "mesh": 12,
      "name": "Object_14"
    }
  ],
  "samplers": [
    {
      "magFilter": 9729,
      "minFilter": 9987,
      "wrapS": 10497,
      "wrapT": 10497
    }
  ],
  "scene": 0,
  "scenes": [
    {
      "name": "Sketchfab_Scene",
      "nodes": [
        0
      ]
    }
  ],
  "textures": [
    {
      "sampler": 0,
      "source": 0
    }
  ]
}
